<?xml version="1.0" encoding="utf-8"?>
<!DOCTYPE svg PUBLIC "-//W3C//DTD SVG 1.1//EN" "http://www.w3.org/Graphics/SVG/1.1/DTD/svg11.dtd">
<svg version="1.1" id="icon-gallery" xmlns="http://www.w3.org/2000/svg" xmlns:xlink="http://www.w3.org/1999/xlink" x="0px"
	 y="0px" width="40px" height="40px" viewBox="0 0 40 40" enable-background="new 0 0 40 40" xml:space="preserve">
<path fill="#D85349" d="M1,3v16h18V3H1z M17,17H3v-5.3c2.1-1.2,4.61-1.89,7.3-1.89c2.44,0,4.73,0.57,6.7,1.57V17z M10.3,7.99
	c-2.64,0-5.13,0.57-7.3,1.59V5h14v4.31C14.97,8.46,12.7,7.99,10.3,7.99z"/>
<path fill="#D85349" d="M21,3v16h18V3H21z M37,17H23v-5.3c2.1-1.2,4.609-1.89,7.3-1.89c2.44,0,4.729,0.57,6.7,1.57V17z M30.3,7.99
	c-2.64,0-5.13,0.57-7.3,1.59V5h14v4.31C34.971,8.46,32.7,7.99,30.3,7.99z"/>
<path fill="#D85349" d="M1,21v16h18V21H1z M17,35H3v-5.3c2.1-1.2,4.61-1.89,7.3-1.89c2.44,0,4.73,0.568,6.7,1.568V35z M10.3,25.99
	c-2.64,0-5.13,0.57-7.3,1.59V23h14v4.311C14.97,26.46,12.7,25.99,10.3,25.99z"/>
<path fill="#D85349" d="M21,21v16h18V21H21z M37,35H23v-5.3c2.1-1.2,4.609-1.89,7.3-1.89c2.44,0,4.729,0.568,6.7,1.568V35z
	 M30.3,25.99c-2.64,0-5.13,0.57-7.3,1.59V23h14v4.311C34.971,26.46,32.7,25.99,30.3,25.99z"/>
</svg>
